<?xml version="1.0" encoding="UTF-8" standalone="no"?>
<svg width="200px" height="200px" viewBox="0 0 200 200" version="1.1" xmlns="http://www.w3.org/2000/svg" xmlns:xlink="http://www.w3.org/1999/xlink" xmlns:sketch="http://www.bohemiancoding.com/sketch/ns">
    <!-- Generator: Sketch 3.0.4 (8053) - http://www.bohemiancoding.com/sketch -->
    <title>kickstarter</title>
    <desc>Created with Sketch.</desc>
    <defs>
        <path id="path-1" d="M0,0 L200,0 L200,200 L0,200"></path>
    </defs>
    <g id="Page-1" stroke="none" stroke-width="1" fill="none" fill-rule="evenodd" sketch:type="MSPage">
        <g id="kickstarter" sketch:type="MSLayerGroup">
            <mask id="mask-2" sketch:name="Clip 2" fill="white">
                <use xlink:href="#path-1"></use>
            </mask>
            <g id="Clip-2"></g>
            <path d="M188.024024,200 L11.9759762,200 C5.36164454,200 0,194.637126 0,188.023952 L0,11.9760479 C0,5.36167665 5.36164454,0 11.9759762,0 L188.024024,0 C194.637158,0 200,5.36167665 200,11.9760479 L200,188.023952 C200,194.637126 194.637158,200 188.024024,200" id="Fill-1" fill="#161D15" sketch:type="MSShapeGroup" mask="url(#mask-2)"></path>
            <path d="M91.508982,82.6011976 L111.550898,53.5640719 C115.34012,48.0934132 120.231138,45.3580838 126.228743,45.3580838 C131.120958,45.3580838 135.353293,47.0934132 138.932934,50.5652695 C142.508982,54.0371257 144.297006,58.1928144 144.297006,63.0323353 C144.297006,66.6095808 143.352096,69.7664671 141.457485,72.5017964 L123.386826,98.7772455 L145.481437,126.789222 C147.691018,129.577246 148.79521,132.839521 148.79521,136.573653 C148.79521,141.51976 147.061078,145.765269 143.588024,149.316168 C140.116168,152.868263 135.905389,154.641916 130.962874,154.641916 C125.543713,154.641916 121.415569,152.881437 118.573653,149.355689 L91.508982,115.584431 L91.508982,134.207186 C91.508982,139.520958 90.5892216,143.649102 88.7473054,146.59521 C85.3808383,151.959281 80.4886228,154.641916 74.0718563,154.641916 C68.2323353,154.641916 63.7065868,152.669461 60.4994012,148.724551 C57.5005988,145.094611 56.0023952,140.28024 56.0023952,134.286228 L56.0023952,65.2419162 C56.0023952,59.560479 57.5257485,54.8802395 60.5784431,51.1976048 C63.7868263,47.3053892 68.2047904,45.3580838 73.8335329,45.3580838 C79.2,45.3580838 83.6706587,47.3053892 87.2479042,51.1976048 C89.2467066,53.3532934 90.508982,55.5365269 91.0347305,57.7461078 C91.3508982,59.1149701 91.508982,61.6646707 91.508982,65.4 L91.508982,82.6011976" id="Fill-4" fill="#39DC77" sketch:type="MSShapeGroup" mask="url(#mask-2)"></path>
        </g>
    </g>
</svg>