<?xml version="1.0" encoding="UTF-8" standalone="no"?>
<svg width="2400px" height="1503px" viewBox="0 0 2400 1503" version="1.1" xmlns="http://www.w3.org/2000/svg" xmlns:xlink="http://www.w3.org/1999/xlink" xmlns:sketch="http://www.bohemiancoding.com/sketch/ns">
    <!-- Generator: Sketch 3.0.4 (8053) - http://www.bohemiancoding.com/sketch -->
    <title>ks-illustration</title>
    <desc>Created with Sketch.</desc>
    <defs></defs>
    <g id="Page-1" stroke="none" stroke-width="1" fill="none" fill-rule="evenodd" sketch:type="MSPage">
        <g id="ks-illustration" sketch:type="MSLayerGroup">
            <path d="M0,0.5 L2399.19,0.5 L2399.19,1503 L0,1503 L0,0.5 Z" id="Fill-1" fill="#2BDE73" sketch:type="MSShapeGroup"></path>
            <path d="M1654.08,507.506 L1563.78,534.691 L1485.42,586.503 L1552.59,729.925 L1721.26,650.927 L1654.08,507.506" id="Fill-2" fill="#FFFFFF" sketch:type="MSShapeGroup"></path>
            <path d="M1485.53,586.393 L1569.95,546.852 L1530.32,462.226 L1485.53,586.393" id="Fill-3" fill="#FFFFFF" sketch:type="MSShapeGroup"></path>
            <path d="M1654.2,507.395 L1569.77,546.936 L1530.14,462.31 L1654.2,507.395" id="Fill-4" fill="#E1E6E3" sketch:type="MSShapeGroup"></path>
            <path d="M1418.25,354.639 L1449.57,473.007 L1380.47,466.801 L1418.25,354.639" id="Fill-5" fill="#E1E6E3" sketch:type="MSShapeGroup"></path>
            <path d="M1418.25,354.639 L1405.4,481.283 L1278.45,468.407 L1418.25,354.639" id="Fill-6" fill="#FFFFFF" sketch:type="MSShapeGroup"></path>
            <path d="M1888.43,551.293 L1949.5,732.098 L2174.7,655.72 L2176.4,631.969 L2192.56,619.862 L2140.58,466.068 L1888.43,551.293" id="Fill-7" fill="#FFFFFF" sketch:type="MSShapeGroup"></path>
            <path d="M2157.74,516.825 L1905.58,602.05 L1888.43,551.293 L2140.58,466.068 L2157.74,516.825" id="Fill-8" fill="#E1E6E3" sketch:type="MSShapeGroup"></path>
            <path d="M1932.1,574.391 L1912.43,581.04 L1905.78,561.368 L1925.45,554.719 L1932.1,574.391" id="Fill-9" fill="#FFFFFF" sketch:type="MSShapeGroup"></path>
            <path d="M2132.39,506.694 L1948.2,568.951 L1941.55,549.28 L2125.75,487.023 L2132.39,506.694" id="Fill-10" fill="#FFFFFF" sketch:type="MSShapeGroup"></path>
            <path d="M2192.45,620.027 L2174.69,655.918 L2165.54,628.87 L2192.45,620.027" id="Fill-11" fill="#E1E6E3" sketch:type="MSShapeGroup"></path>
            <path d="M628.26,895.765 L489.593,741.56 L703.913,548.837 L842.579,703.042 L628.26,895.765" id="Fill-12" fill="#E1E6E3" sketch:type="MSShapeGroup"></path>
            <path d="M847.301,1054.81 L640.172,1065.07 L625.915,777.198 L833.044,766.94 L847.301,1054.81" id="Fill-13" fill="#FFFFFF" sketch:type="MSShapeGroup"></path>
            <path d="M1314.65,438.948 L1278.45,468.407 L1332.94,473.934 L1314.65,438.948" id="Fill-14" fill="#E1E6E3" sketch:type="MSShapeGroup"></path>
            <path d="M1389.41,598.106 L1302.52,643.542 L1175.11,399.908 L1262,354.472 L1389.41,598.106" id="Fill-15" fill="#FFFFFF" sketch:type="MSShapeGroup"></path>
            <path d="M1231.92,619.692 L1302.52,643.542 L1175.11,399.908 L1104.52,376.057 L1231.92,619.692" id="Fill-16" fill="#E1E6E3" sketch:type="MSShapeGroup"></path>
            <path d="M1092.1,636.449 L896.56,666.411 L876.697,536.784 L1072.23,506.822 L1092.1,636.449" id="Fill-17" fill="#E1E6E3" sketch:type="MSShapeGroup"></path>
            <path d="M1092.1,636.449 L896.56,666.411 L932.587,554.44 L1128.12,524.478 L1092.1,636.449" id="Fill-18" fill="#FFFFFF" sketch:type="MSShapeGroup"></path>
            <path d="M542.746,885.631 L347.351,816.145 L443.925,544.578 L639.32,614.065 L542.746,885.631" id="Fill-19" fill="#FFFFFF" sketch:type="MSShapeGroup"></path>
            <path d="M658.505,390.644 L685.125,289.758 L962.946,363.839 L909.644,563.735 L728.531,515.027 L658.505,390.644" id="Fill-20" fill="#FFFFFF" sketch:type="MSShapeGroup"></path>
            <path d="M657.405,389.158 L755.144,415.22 L728.531,515.027 L657.405,389.158" id="Fill-21" fill="#E1E6E3" sketch:type="MSShapeGroup"></path>
            <path d="M1410.11,873.464 L1457,889.87 L1442.66,930.843 C1434.72,953.54 1446.05,978.309 1468.06,987.308 L1535.27,1010.09 L1627.55,737.832 L1431.66,671.433 L1381.57,819.205 C1375.4,841.787 1387.67,865.616 1410.11,873.464" id="Fill-22" fill="#FFFFFF" sketch:type="MSShapeGroup"></path>
            <path d="M1442.7,960.652 C1439.41,951.34 1439.15,940.885 1442.67,930.836 L1457,889.863 L1410.11,873.458 C1399.26,869.663 1390.79,862.133 1385.62,852.813 L1442.7,960.652" id="Fill-23" fill="#E1E6E3" sketch:type="MSShapeGroup"></path>
            <path d="M1799.58,1119.54 L1549.69,1155.35 L1545.3,1124.7 L1795.19,1088.89 L1799.58,1119.54" id="Fill-24" fill="#E1E6E3" sketch:type="MSShapeGroup"></path>
            <path d="M1913.33,1103.24 L1799.02,1119.62 L1794.63,1088.97 L1908.94,1072.58 L1913.33,1103.24" id="Fill-25" fill="#FFFFFF" sketch:type="MSShapeGroup"></path>
            <path d="M1913.3,1103.14 L1878.34,1076.94 L1908.92,1072.56 L1913.3,1103.14" id="Fill-26" fill="#E1E6E3" sketch:type="MSShapeGroup"></path>
            <path d="M1794.63,1088.97 L1767.49,1125.18 L1762.84,1092.72 L1794.63,1088.97" id="Fill-27" fill="#FFFFFF" sketch:type="MSShapeGroup"></path>
            <path d="M1549.72,1155.56 L1576.11,1120.34 L1545.3,1124.76 L1549.72,1155.56" id="Fill-28" fill="#FFFFFF" sketch:type="MSShapeGroup"></path>
            <path d="M1909.8,1072.5 L1700.51,1102.49 L1679.14,953.382 L1888.43,923.389 L1909.8,1072.5" id="Fill-29" fill="#E1E6E3" sketch:type="MSShapeGroup"></path>
            <path d="M1882.46,1053.52 L1720.6,1076.72 L1705.94,974.407 L1867.8,951.212 L1882.46,1053.52" id="Fill-30" fill="#FFFFFF" sketch:type="MSShapeGroup"></path>
            <path d="M1940.07,1068.16 L1908.9,1072.63 L1887.53,923.518 L1918.7,919.051 L1940.07,1068.16" id="Fill-31" fill="#FFFFFF" sketch:type="MSShapeGroup"></path>
            <path d="M1923.27,949.576 L1888.3,923.375 L1918.88,918.992 L1923.27,949.576" id="Fill-32" fill="#E1E6E3" sketch:type="MSShapeGroup"></path>
            <path d="M1329.81,1057.99 L1265.48,1143.04 L1244.76,993.671 L1329.81,1057.99" id="Fill-33" fill="#E1E6E3" sketch:type="MSShapeGroup"></path>
            <path d="M1329.81,1057.99 L1244.76,993.671 L1394.13,972.944 L1329.81,1057.99" id="Fill-34" fill="#FFFFFF" sketch:type="MSShapeGroup"></path>
            <path d="M1329.81,1057.99 L1394.13,972.944 L1414.86,1122.32 L1329.81,1057.99" id="Fill-35" fill="#E1E6E3" sketch:type="MSShapeGroup"></path>
            <path d="M1415.28,1121.19 L1351.76,1207.25 L1265.23,1143.38 L1328.76,1057.32 L1415.28,1121.19" id="Fill-36" fill="#FFFFFF" sketch:type="MSShapeGroup"></path>
            <path d="M1870.73,863.875 L1756.45,851.385 L1775.1,680.718 L1889.38,693.207 L1870.73,863.875" id="Fill-37" fill="#E1E6E3" sketch:type="MSShapeGroup"></path>
            <path d="M1870.73,863.875 L1756.45,851.385 L1758.93,828.625 L1873.22,841.114 L1870.73,863.875" id="Fill-38" fill="#FFFFFF" sketch:type="MSShapeGroup"></path>
            <path d="M1828.95,824.869 L1805.67,822.325 L1808.15,799.565 L1831.43,802.109 L1828.95,824.869" id="Fill-39" fill="#FFFFFF" sketch:type="MSShapeGroup"></path>
            <path d="M1861.04,795.214 L1780.74,786.438 L1790.25,699.419 L1870.55,708.194 L1861.04,795.214" id="Fill-40" fill="#FFFFFF" sketch:type="MSShapeGroup"></path>
            <path d="M1756.45,851.385 L1783.68,830.971 L1781.1,854.147 L1756.45,851.385" id="Fill-41" fill="#E1E6E3" sketch:type="MSShapeGroup"></path>
            <path d="M1870.73,863.875 L1848.97,838.221 L1846.42,861.25 L1870.73,863.875" id="Fill-42" fill="#E1E6E3" sketch:type="MSShapeGroup"></path>
            <path d="M1772.8,339.202 L1790.2,343.085 L1777.65,399.269 L1760.26,395.386 L1772.8,339.202" id="Fill-43" fill="#E1E6E3" sketch:type="MSShapeGroup"></path>
            <path d="M1767.76,443.59 L1721.05,433.163 L1731.48,386.455 L1778.19,396.882 L1767.76,443.59" id="Fill-44" fill="#FFFFFF" sketch:type="MSShapeGroup"></path>
            <path d="M1851.08,356.675 L1868.47,360.558 L1855.93,416.742 L1838.53,412.859 L1851.08,356.675" id="Fill-45" fill="#E1E6E3" sketch:type="MSShapeGroup"></path>
            <path d="M1908.71,375.232 L1772.14,344.744 L1781.12,304.52 L1917.69,335.008 L1908.71,375.232" id="Fill-46" fill="#FFFFFF" sketch:type="MSShapeGroup"></path>
            <path d="M1845.82,461.016 L1799.11,450.589 L1809.54,403.881 L1856.25,414.308 L1845.82,461.016" id="Fill-47" fill="#FFFFFF" sketch:type="MSShapeGroup"></path>
            <path d="M1597.1,310.805 L1614.63,307.621 L1624.8,363.611 L1607.27,366.795 L1597.1,310.805" id="Fill-48" fill="#E1E6E3" sketch:type="MSShapeGroup"></path>
            <path d="M1632.91,408.293 L1585.83,416.843 L1577.28,369.755 L1624.36,361.205 L1632.91,408.293" id="Fill-49" fill="#FFFFFF" sketch:type="MSShapeGroup"></path>
            <path d="M1680.21,300.688 L1598.52,315.52 L1591.16,274.969 L1672.84,260.138 L1680.21,300.688" id="Fill-50" fill="#FFFFFF" sketch:type="MSShapeGroup"></path>
            <path d="M2144.63,894.179 L2208.54,877.507 L2059.36,753.218 L1988.22,934.982 L2058.86,916.555 L2117.38,965.315 L2144.63,894.179" id="Fill-51" fill="#FFFFFF" sketch:type="MSShapeGroup"></path>
            <path d="M2117.38,965.315 L2064.67,766.841 L2145.7,891.39 L2117.38,965.315" id="Fill-52" fill="#E1E6E3" sketch:type="MSShapeGroup"></path>
            <path d="M426.966,844.458 L399.056,670.748 L347.351,816.145 L426.966,844.458" id="Fill-53" fill="#E1E6E3" sketch:type="MSShapeGroup"></path>
            <path d="M325.81,856.644 L195.783,968.356 L151.106,677.379 L281.132,565.667 L325.81,856.644" id="Fill-54" fill="#000000" sketch:type="MSShapeGroup"></path>
            <path d="M380.525,605.2 L338.746,619.146 L332.048,579.748 L157.426,679.674 L203.889,959.814 L428.224,902.078 L380.525,605.2" id="Fill-55" fill="#FFFFFF" sketch:type="MSShapeGroup"></path>
            <path d="M405.134,937.152 L195.773,969.298 L151.095,678.321 L360.457,646.175 L405.134,937.152" id="Fill-56" fill="#000000" sketch:type="MSShapeGroup"></path>
            <path d="M938.668,886.882 L970.581,683.903 L1252.69,728.256 L1220.77,931.235 L938.668,886.882" id="Fill-57" fill="#E1E6E3" sketch:type="MSShapeGroup"></path>
            <path d="M985.066,1189.81 C1000.24,1165.58 1000.94,1134.99 986.894,1110.09 L905.647,965.65 L1071.28,872.21 L1154.27,1019.73 C1167.38,1042.98 1167.7,1071.31 1155.12,1094.84 L985.066,1189.81" id="Fill-58" fill="#FFFFFF" sketch:type="MSShapeGroup"></path>
        </g>
    </g>
</svg>