<?xml version="1.0" encoding="UTF-8" standalone="no"?>
<svg width="751px" height="405px" viewBox="0 0 751 405" version="1.1" xmlns="http://www.w3.org/2000/svg" xmlns:xlink="http://www.w3.org/1999/xlink" xmlns:sketch="http://www.bohemiancoding.com/sketch/ns">
    <!-- Generator: Sketch 3.0.4 (8053) - http://www.bohemiancoding.com/sketch -->
    <title>illo-new-issue-4-desktop</title>
    <desc>Created with Sketch.</desc>
    <defs></defs>
    <g id="Page-1" stroke="none" stroke-width="1" fill="none" fill-rule="evenodd" sketch:type="MSPage">
        <g id="illo-new-issue-4-desktop" sketch:type="MSLayerGroup" transform="translate(2.000000, 2.000000)">
            <g id="computer-+-computer-text" transform="translate(38.000000, 0.000000)" sketch:type="MSShapeGroup">
                <g id="computer" stroke="#FFFFFF" stroke-width="2" fill="#00CFB5">
                    <path d="M215.778079,397.082378 C215.348358,399.246021 216.791985,401 218.998521,401 L313.001479,401 C315.209801,401 316.650289,399.239209 316.221921,397.082378 L301.309814,322 L230.690186,322 L215.778079,397.082378 Z" id="Rectangle-153"></path>
                    <rect id="Rectangle-122" x="0" y="0" width="516" height="343" rx="10"></rect>
                    <rect id="Rectangle-121" x="26" y="26" width="462" height="289"></rect>
                </g>
                <g id="Group" transform="translate(151.000000, 32.000000)" fill="#01A690">
                    <rect id="Rectangle-55" x="0" y="13" width="205" height="3"></rect>
                    <rect id="Rectangle-56" x="0" y="6" width="205" height="3"></rect>
                    <rect id="Rectangle-57" x="0" y="0" width="205" height="3"></rect>
                    <rect id="Rectangle-54" x="0" y="19" width="195" height="3"></rect>
                    <rect id="Rectangle-51" x="0" y="40" width="70" height="3"></rect>
                    <rect id="Rectangle-49" x="0" y="53" width="214" height="3"></rect>
                    <rect id="Rectangle-48" x="0" y="59" width="205" height="3"></rect>
                    <rect id="Rectangle-47" x="0" y="66" width="195" height="3"></rect>
                    <rect id="Rectangle-46" x="0" y="72" width="186" height="3"></rect>
                    <rect id="Rectangle-44" x="0" y="85" width="186" height="3"></rect>
                    <rect id="Rectangle-43" x="0" y="92" width="200" height="3"></rect>
                    <rect id="Rectangle-42" x="0" y="99" width="172" height="3"></rect>
                    <rect id="Rectangle-41" x="0" y="125" width="186" height="3"></rect>
                    <rect id="Rectangle-38" x="0" y="105" width="205" height="3"></rect>
                    <rect id="Rectangle-37" x="0" y="112" width="195" height="3"></rect>
                    <rect id="Rectangle-36" x="0" y="118" width="214" height="3"></rect>
                    <rect id="Rectangle-75" x="0" y="144" width="49" height="3"></rect>
                    <rect id="Rectangle-73" x="0" y="158" width="214" height="3"></rect>
                    <rect id="Rectangle-72" x="0" y="164" width="177" height="3"></rect>
                    <rect id="Rectangle-71" x="0" y="171" width="186" height="3"></rect>
                    <rect id="Rectangle-70" x="0" y="178" width="200" height="3"></rect>
                    <rect id="Rectangle-69" x="0" y="185" width="214" height="3"></rect>
                    <rect id="Rectangle-68" x="0" y="191" width="205" height="3"></rect>
                    <rect id="Rectangle-67" x="0" y="198" width="195" height="3"></rect>
                    <rect id="Rectangle-66" x="0" y="204" width="186" height="3"></rect>
                    <rect id="Rectangle-65" x="0" y="211" width="207" height="3"></rect>
                    <rect id="Rectangle-63" x="0" y="224" width="200" height="3"></rect>
                    <rect id="Rectangle-86" x="0" y="231" width="214" height="3"></rect>
                    <rect id="Rectangle-85" x="0" y="237" width="177" height="3"></rect>
                    <rect id="Rectangle-84" x="0" y="244" width="186" height="3"></rect>
                    <rect id="Rectangle-83" x="0" y="250" width="200" height="3"></rect>
                    <rect id="Rectangle-82" x="0" y="257" width="214" height="3"></rect>
                    <rect id="Rectangle-81" x="0" y="263" width="205" height="3"></rect>
                    <rect id="Rectangle-80" x="0" y="270" width="195" height="3"></rect>
                    <rect id="Rectangle-81" x="0" y="276" width="195" height="3"></rect>
                </g>
            </g>
            <g id="tablet-+-tablet-text" transform="translate(485.000000, 86.000000)" sketch:type="MSShapeGroup">
                <g id="tablet" stroke="#FFFFFF" stroke-width="2" fill="#00CFB5">
                    <rect id="Rectangle-1" x="0" y="0" width="213" height="315" rx="5"></rect>
                    <rect id="Rectangle-2" x="17" y="30" width="180" height="260"></rect>
                    <rect id="Rectangle-17-copy" x="103" y="297" width="8" height="8" rx="40"></rect>
                </g>
                <g id="tablet-text" transform="translate(24.000000, 46.000000)" fill="#01A690">
                    <rect id="Rectangle-14" x="4.6662508e-14" y="-2.84217094e-14" width="52" height="3"></rect>
                    <rect id="Rectangle-13" x="4.6662508e-14" y="6" width="42" height="3"></rect>
                    <rect id="Rectangle-55" x="4.6662508e-14" y="19" width="159" height="3"></rect>
                    <rect id="Rectangle-54" x="4.6662508e-14" y="26" width="150" height="3"></rect>
                    <rect id="Rectangle-53" x="4.6662508e-14" y="33" width="165" height="3"></rect>
                    <rect id="Rectangle-52" x="4.6662508e-14" y="40" width="137" height="3"></rect>
                    <rect id="Rectangle-51" x="4.6662508e-14" y="46" width="144" height="3"></rect>
                    <rect id="Rectangle-50" x="4.6662508e-14" y="53" width="154" height="3"></rect>
                    <rect id="Rectangle-49" x="4.6662508e-14" y="59" width="165" height="3"></rect>
                    <rect id="Rectangle-48" x="4.6662508e-14" y="66" width="159" height="3"></rect>
                    <rect id="Rectangle-47" x="9.32554743e-14" y="72" width="150" height="3"></rect>
                    <rect id="Rectangle-46" x="4.6662508e-14" y="79" width="144" height="3"></rect>
                    <rect id="Rectangle-45" x="4.6662508e-14" y="85" width="159" height="3"></rect>
                    <rect id="Rectangle-44" x="4.6662508e-14" y="92" width="144" height="3"></rect>
                    <rect id="Rectangle-43" x="4.6662508e-14" y="98" width="154" height="3"></rect>
                    <rect id="Rectangle-42" x="4.6662508e-14" y="105" width="133" height="3"></rect>
                    <rect id="Rectangle-41" x="4.6662508e-14" y="131" width="144" height="3"></rect>
                    <rect id="Rectangle-40" x="4.6662508e-14" y="138" width="154" height="3"></rect>
                    <rect id="Rectangle-39" x="4.6662508e-14" y="144" width="165" height="3"></rect>
                    <rect id="Rectangle-38" x="4.6662508e-14" y="112" width="159" height="3"></rect>
                    <rect id="Rectangle-37" x="4.6662508e-14" y="118" width="150" height="3"></rect>
                    <rect id="Rectangle-36" x="4.6662508e-14" y="125" width="165" height="3"></rect>
                    <rect id="Rectangle-75" x="4.6662508e-14" y="152" width="159" height="3"></rect>
                    <rect id="Rectangle-74" x="4.6662508e-14" y="158" width="150" height="3"></rect>
                    <rect id="Rectangle-73" x="4.6662508e-14" y="165" width="165" height="3"></rect>
                    <rect id="Rectangle-72" x="4.6662508e-14" y="171" width="137" height="3"></rect>
                    <rect id="Rectangle-71" x="4.6662508e-14" y="178" width="144" height="3"></rect>
                    <rect id="Rectangle-70" x="4.6662508e-14" y="185" width="154" height="3"></rect>
                    <rect id="Rectangle-69" x="4.6662508e-14" y="191" width="165" height="3"></rect>
                    <rect id="Rectangle-68" x="4.6662508e-14" y="198" width="159" height="3"></rect>
                    <rect id="Rectangle-67" x="4.6662508e-14" y="204" width="150" height="3"></rect>
                    <rect id="Rectangle-66" x="4.6662508e-14" y="211" width="144" height="3"></rect>
                    <rect id="Rectangle-65" x="4.6662508e-14" y="217" width="159" height="3"></rect>
                    <rect id="Rectangle-64" x="4.6662508e-14" y="224" width="144" height="3"></rect>
                    <rect id="Rectangle-63" x="4.6662508e-14" y="230" width="154" height="3"></rect>
                </g>
            </g>
            <g id="print" transform="translate(0.000000, 133.000000)" sketch:type="MSShapeGroup">
                <rect id="Rectangle-3" stroke="#FFFFFF" stroke-width="2" fill="#00CFB5" x="0" y="4.73137012e-15" width="200" height="268"></rect>
                <rect id="Rectangle-3" stroke="#FFFFFF" stroke-width="2" fill="#00CFB5" x="19" y="4.73137012e-15" width="181" height="268"></rect>
                <polygon id="Polygon-1" stroke="#FFFFFF" stroke-width="2" fill="#00CFB5" points="109 110 148 134 109 158 70 134 "></polygon>
                <rect id="Rectangle-13" fill="#FFFFFF" x="89" y="134" width="42" height="2"></rect>
                <rect id="Rectangle-14" fill="#FFFFFF" x="101" y="127" width="18" height="2"></rect>
            </g>
            <g id="ereader-+-ereader-text" transform="translate(385.000000, 172.000000)" sketch:type="MSShapeGroup">
                <g id="ereader" stroke="#FFFFFF" stroke-width="2" fill="#00CFB5">
                    <rect id="Rectangle-7" x="0" y="0" width="155" height="229" rx="4"></rect>
                    <rect id="Rectangle-8" x="16" y="24" width="124" height="168"></rect>
                </g>
                <g id="ereader-text" transform="translate(24.000000, 39.000000)" fill="#01A690">
                    <rect id="Rectangle-11" x="0" y="0" width="52" height="3"></rect>
                    <rect id="Rectangle-12" x="0" y="6" width="42" height="3"></rect>
                    <rect id="Rectangle-16" x="0" y="19" width="97" height="3"></rect>
                    <rect id="Rectangle-17" x="0" y="26" width="92" height="3"></rect>
                    <rect id="Rectangle-18" x="0" y="33" width="101" height="3"></rect>
                    <rect id="Rectangle-25" x="0" y="40" width="78" height="3"></rect>
                    <rect id="Rectangle-24" x="0" y="46" width="88" height="3"></rect>
                    <rect id="Rectangle-23" x="0" y="53" width="95" height="3"></rect>
                    <rect id="Rectangle-22" x="0" y="59" width="101" height="3"></rect>
                    <rect id="Rectangle-21" x="0" y="66" width="97" height="3"></rect>
                    <rect id="Rectangle-20" x="0" y="72" width="92" height="3"></rect>
                    <rect id="Rectangle-19" x="0" y="79" width="88" height="3"></rect>
                    <rect id="Rectangle-32" x="0" y="85" width="97" height="3"></rect>
                    <rect id="Rectangle-31" x="0" y="93" width="88" height="3"></rect>
                    <rect id="Rectangle-30" x="0" y="100" width="95" height="3"></rect>
                    <rect id="Rectangle-29" x="0" y="106" width="82" height="3"></rect>
                    <rect id="Rectangle-35" x="0" y="132" width="88" height="3"></rect>
                    <rect id="Rectangle-34" x="0" y="139" width="95" height="3"></rect>
                    <rect id="Rectangle-33" x="0" y="145" width="101" height="3"></rect>
                    <rect id="Rectangle-28" x="0" y="113" width="97" height="3"></rect>
                    <rect id="Rectangle-27" x="0" y="119" width="92" height="3"></rect>
                    <rect id="Rectangle-26" x="0" y="126" width="101" height="3"></rect>
                </g>
            </g>
            <g id="phone-text-+-phone" transform="translate(660.000000, 237.000000)" sketch:type="MSShapeGroup">
                <g id="phone" stroke="#FFFFFF" stroke-width="2" fill="#00CFB5">
                    <rect id="Rectangle-5" x="0" y="0" width="87" height="164" rx="4"></rect>
                    <rect id="Rectangle-6" x="10" y="22" width="68" height="122"></rect>
                    <rect id="Rectangle-17" x="40" y="150" width="8" height="8" rx="40"></rect>
                </g>
                <g id="phone-text" transform="translate(15.000000, 35.000000)" fill="#01A690">
                    <rect id="Rectangle-11" x="0" y="0" width="52" height="3"></rect>
                    <rect id="Rectangle-12" x="0" y="6" width="42" height="3"></rect>
                    <rect id="Rectangle-16" x="0" y="21" width="52" height="3"></rect>
                    <rect id="Rectangle-17" x="0" y="28" width="50" height="3"></rect>
                    <rect id="Rectangle-18" x="0" y="34" width="55" height="3"></rect>
                    <rect id="Rectangle-25" x="0" y="41" width="43" height="3"></rect>
                    <rect id="Rectangle-24" x="0" y="48" width="48" height="3"></rect>
                    <rect id="Rectangle-23" x="0" y="55" width="52" height="3"></rect>
                    <rect id="Rectangle-22" x="0" y="61" width="55" height="3"></rect>
                    <rect id="Rectangle-21" x="0" y="68" width="52" height="3"></rect>
                    <rect id="Rectangle-20" x="0" y="74" width="50" height="3"></rect>
                    <rect id="Rectangle-19" x="0" y="81" width="48" height="3"></rect>
                    <rect id="Rectangle-32" x="0" y="87" width="53" height="3"></rect>
                    <rect id="Rectangle-31" x="0" y="94" width="48" height="3"></rect>
                    <rect id="Rectangle-30" x="0" y="100" width="52" height="3"></rect>
                </g>
            </g>
        </g>
    </g>
</svg>