<?xml version="1.0" encoding="UTF-8" standalone="no"?>
<svg width="744px" height="410px" viewBox="0 0 744 410" version="1.1" xmlns="http://www.w3.org/2000/svg" xmlns:xlink="http://www.w3.org/1999/xlink" xmlns:sketch="http://www.bohemiancoding.com/sketch/ns">
    <!-- Generator: Sketch 3.0.4 (8053) - http://www.bohemiancoding.com/sketch -->
    <title>illo-new-issue-4</title>
    <desc>Created with Sketch.</desc>
    <defs></defs>
    <g id="Page-1" stroke="none" stroke-width="1" fill="none" fill-rule="evenodd" sketch:type="MSPage">
        <g id="illo-new-issue-4" sketch:type="MSLayerGroup" transform="translate(2.000000, 2.000000)">
            <g id="laptop-+-laptop-text" transform="translate(110.000000, 0.000000)" sketch:type="MSShapeGroup">
                <g id="laptop" stroke="#FFFFFF" stroke-width="2" fill="#1BCBB1">
                    <rect id="Rectangle-120" x="0" y="0" width="558" height="384"></rect>
                    <rect id="Rectangle-119" x="0" y="374" width="558" height="32"></rect>
                    <rect id="Rectangle-121" x="16" y="22" width="524" height="328"></rect>
                </g>
                <g id="laptop-text" transform="translate(157.000000, 29.000000)" fill="#01A690">
                    <rect id="Rectangle-55" x="0" y="0" width="234" height="3"></rect>
                    <rect id="Rectangle-54" x="0" y="8" width="222" height="3"></rect>
                    <rect id="Rectangle-51" x="0" y="32" width="80" height="3"></rect>
                    <rect id="Rectangle-49" x="0" y="48" width="244" height="3"></rect>
                    <rect id="Rectangle-48" x="0" y="56" width="234" height="3"></rect>
                    <rect id="Rectangle-47" x="0" y="64" width="222" height="3"></rect>
                    <rect id="Rectangle-46" x="0" y="72" width="212" height="3"></rect>
                    <rect id="Rectangle-44" x="0" y="88" width="212" height="3"></rect>
                    <rect id="Rectangle-43" x="0" y="96" width="228" height="3"></rect>
                    <rect id="Rectangle-42" x="0" y="104" width="196" height="3"></rect>
                    <rect id="Rectangle-41" x="0" y="136" width="212" height="3"></rect>
                    <rect id="Rectangle-38" x="0" y="112" width="234" height="3"></rect>
                    <rect id="Rectangle-37" x="0" y="120" width="222" height="3"></rect>
                    <rect id="Rectangle-36" x="0" y="128" width="244" height="3"></rect>
                    <rect id="Rectangle-75" x="0" y="160" width="56" height="3"></rect>
                    <rect id="Rectangle-73" x="0" y="176" width="244" height="3"></rect>
                    <rect id="Rectangle-72" x="0" y="184" width="202" height="3"></rect>
                    <rect id="Rectangle-71" x="0" y="192" width="212" height="3"></rect>
                    <rect id="Rectangle-70" x="0" y="201" width="228" height="3"></rect>
                    <rect id="Rectangle-69" x="0" y="209" width="244" height="3"></rect>
                    <rect id="Rectangle-68" x="0" y="217" width="234" height="3"></rect>
                    <rect id="Rectangle-67" x="0" y="225" width="222" height="3"></rect>
                    <rect id="Rectangle-66" x="0" y="233" width="212" height="3"></rect>
                    <rect id="Rectangle-65" x="0" y="241" width="236" height="3"></rect>
                    <rect id="Rectangle-63" x="0" y="257" width="228" height="3"></rect>
                    <rect id="Rectangle-86" x="0" y="265" width="244" height="3"></rect>
                    <rect id="Rectangle-85" x="0" y="273" width="202" height="3"></rect>
                    <rect id="Rectangle-84" x="0" y="281" width="212" height="3"></rect>
                    <rect id="Rectangle-83" x="0" y="289" width="228" height="3"></rect>
                    <rect id="Rectangle-82" x="0" y="297" width="244" height="3"></rect>
                    <rect id="Rectangle-81" x="0" y="305" width="234" height="3"></rect>
                    <rect id="Rectangle-80" x="0" y="313" width="222" height="3"></rect>
                </g>
            </g>
            <g id="tablet-+-tablet-text" transform="translate(481.000000, 22.000000)" sketch:type="MSShapeGroup">
                <g id="tablet" stroke="#FFFFFF" stroke-width="2" fill="#1BCBB1">
                    <rect id="Rectangle-1" x="0" y="0" width="259" height="384" rx="5"></rect>
                    <rect id="Rectangle-2" x="20" y="36" width="219" height="317"></rect>
                    <rect id="Rectangle-17-copy" x="125" y="363" width="10" height="10" rx="40"></rect>
                </g>
                <g id="tablet-text" transform="translate(29.000000, 56.000000)" fill="#01A690">
                    <rect id="Rectangle-14" x="5.68434189e-14" y="0" width="63" height="3"></rect>
                    <rect id="Rectangle-13" x="5.68434189e-14" y="8" width="51" height="3"></rect>
                    <rect id="Rectangle-55" x="5.68434189e-14" y="24" width="193" height="3"></rect>
                    <rect id="Rectangle-54" x="5.68434189e-14" y="32" width="183" height="3"></rect>
                    <rect id="Rectangle-53" x="5.68434189e-14" y="40" width="201" height="3"></rect>
                    <rect id="Rectangle-52" x="5.68434189e-14" y="48" width="167" height="3"></rect>
                    <rect id="Rectangle-51" x="5.68434189e-14" y="56" width="175" height="3"></rect>
                    <rect id="Rectangle-50" x="5.68434189e-14" y="64" width="188" height="3"></rect>
                    <rect id="Rectangle-49" x="5.68434189e-14" y="72" width="201" height="3"></rect>
                    <rect id="Rectangle-48" x="5.68434189e-14" y="80" width="193" height="3"></rect>
                    <rect id="Rectangle-47" x="1.13686838e-13" y="88" width="183" height="3"></rect>
                    <rect id="Rectangle-46" x="5.68434189e-14" y="96" width="175" height="3"></rect>
                    <rect id="Rectangle-45" x="5.68434189e-14" y="104" width="194" height="3"></rect>
                    <rect id="Rectangle-44" x="5.68434189e-14" y="112" width="175" height="3"></rect>
                    <rect id="Rectangle-43" x="5.68434189e-14" y="120" width="188" height="3"></rect>
                    <rect id="Rectangle-42" x="5.68434189e-14" y="128" width="162" height="3"></rect>
                    <rect id="Rectangle-41" x="5.68434189e-14" y="160" width="175" height="3"></rect>
                    <rect id="Rectangle-40" x="5.68434189e-14" y="168" width="188" height="3"></rect>
                    <rect id="Rectangle-39" x="5.68434189e-14" y="176" width="201" height="3"></rect>
                    <rect id="Rectangle-38" x="5.68434189e-14" y="136" width="193" height="3"></rect>
                    <rect id="Rectangle-37" x="5.68434189e-14" y="144" width="183" height="3"></rect>
                    <rect id="Rectangle-36" x="5.68434189e-14" y="152" width="201" height="3"></rect>
                    <rect id="Rectangle-75" x="5.68434189e-14" y="185" width="193" height="3"></rect>
                    <rect id="Rectangle-74" x="5.68434189e-14" y="193" width="183" height="3"></rect>
                    <rect id="Rectangle-73" x="5.68434189e-14" y="201" width="201" height="3"></rect>
                    <rect id="Rectangle-72" x="5.68434189e-14" y="209" width="167" height="3"></rect>
                    <rect id="Rectangle-71" x="5.68434189e-14" y="217" width="175" height="3"></rect>
                    <rect id="Rectangle-70" x="5.68434189e-14" y="225" width="188" height="3"></rect>
                    <rect id="Rectangle-69" x="5.68434189e-14" y="233" width="201" height="3"></rect>
                    <rect id="Rectangle-68" x="5.68434189e-14" y="241" width="193" height="3"></rect>
                    <rect id="Rectangle-67" x="5.68434189e-14" y="249" width="183" height="3"></rect>
                    <rect id="Rectangle-66" x="5.68434189e-14" y="257" width="175" height="3"></rect>
                    <rect id="Rectangle-65" x="5.68434189e-14" y="265" width="194" height="3"></rect>
                    <rect id="Rectangle-64" x="5.68434189e-14" y="273" width="175" height="3"></rect>
                    <rect id="Rectangle-63" x="5.68434189e-14" y="281" width="188" height="3"></rect>
                </g>
            </g>
            <g id="print" transform="translate(0.000000, 79.278107)" sketch:type="MSShapeGroup">
                <rect id="Rectangle-3" stroke="#FFFFFF" stroke-width="2" fill="#1BCBB1" x="0" y="-0.278106509" width="243" height="327"></rect>
                <rect id="Rectangle-3" stroke="#FFFFFF" stroke-width="2" fill="#1BCBB1" x="24" y="-0.278106509" width="219" height="327"></rect>
                <polygon id="Polygon-1" stroke="#FFFFFF" stroke-width="2" fill="#1BCBB1" points="133 133.721893 180 163.721893 133 192.721893 86 163.721893 "></polygon>
                <rect id="Rectangle-13" fill="#FFFFFF" x="108" y="163.721893" width="51" height="2"></rect>
                <rect id="Rectangle-14" fill="#FFFFFF" x="123" y="155.721893" width="21" height="2"></rect>
            </g>
            <g id="ereader-+-ereader-text" transform="translate(350.000000, 127.000000)" sketch:type="MSShapeGroup">
                <g id="ereader" stroke="#FFFFFF" stroke-width="2" fill="#1BCBB1">
                    <rect id="Rectangle-7" x="0" y="0" width="189" height="279" rx="4"></rect>
                    <rect id="Rectangle-8" x="19" y="29" width="151" height="205"></rect>
                </g>
                <g id="ereader-text" transform="translate(29.000000, 47.000000)" fill="#01A690">
                    <rect id="Rectangle-11" x="0" y="0" width="63" height="3"></rect>
                    <rect id="Rectangle-12" x="0" y="8" width="51" height="3"></rect>
                    <rect id="Rectangle-16" x="0" y="24" width="118" height="3"></rect>
                    <rect id="Rectangle-17" x="0" y="32" width="112" height="3"></rect>
                    <rect id="Rectangle-18" x="0" y="40" width="123" height="3"></rect>
                    <rect id="Rectangle-25" x="0" y="48" width="95" height="3"></rect>
                    <rect id="Rectangle-24" x="0" y="56" width="107" height="3"></rect>
                    <rect id="Rectangle-23" x="0" y="64" width="115" height="3"></rect>
                    <rect id="Rectangle-22" x="0" y="72" width="123" height="3"></rect>
                    <rect id="Rectangle-21" x="0" y="80" width="118" height="3"></rect>
                    <rect id="Rectangle-20" x="0" y="88" width="112" height="3"></rect>
                    <rect id="Rectangle-19" x="0" y="96" width="107" height="3"></rect>
                    <rect id="Rectangle-32" x="0" y="104" width="119" height="3"></rect>
                    <rect id="Rectangle-31" x="0" y="113" width="107" height="3"></rect>
                    <rect id="Rectangle-30" x="0" y="121" width="115" height="3"></rect>
                    <rect id="Rectangle-29" x="0" y="129" width="99" height="3"></rect>
                    <rect id="Rectangle-35" x="0" y="161" width="107" height="3"></rect>
                    <rect id="Rectangle-34" x="0" y="169" width="115" height="3"></rect>
                    <rect id="Rectangle-33" x="0" y="177" width="123" height="3"></rect>
                    <rect id="Rectangle-28" x="0" y="137" width="118" height="3"></rect>
                    <rect id="Rectangle-27" x="0" y="145" width="112" height="3"></rect>
                    <rect id="Rectangle-26" x="0" y="153" width="123" height="3"></rect>
                </g>
            </g>
            <g id="phone-text-+-phone" transform="translate(477.000000, 207.000000)" sketch:type="MSShapeGroup">
                <g id="phone" stroke="#FFFFFF" stroke-width="2" fill="#1BCBB1">
                    <rect id="Rectangle-5" x="0" y="0" width="106" height="199" rx="4"></rect>
                    <rect id="Rectangle-6" x="12" y="27" width="82" height="148"></rect>
                    <rect id="Rectangle-17" x="48" y="182" width="10" height="10" rx="40"></rect>
                </g>
                <g id="phone-text" transform="translate(18.000000, 43.000000)" fill="#01A690">
                    <rect id="Rectangle-11" x="0" y="0" width="63" height="3"></rect>
                    <rect id="Rectangle-12" x="0" y="8" width="51" height="3"></rect>
                    <rect id="Rectangle-16" x="0" y="26" width="64" height="3"></rect>
                    <rect id="Rectangle-17" x="0" y="34" width="61" height="3"></rect>
                    <rect id="Rectangle-18" x="0" y="42" width="67" height="3"></rect>
                    <rect id="Rectangle-25" x="0" y="50" width="52" height="3"></rect>
                    <rect id="Rectangle-24" x="0" y="58" width="58" height="3"></rect>
                    <rect id="Rectangle-23" x="0" y="66" width="63" height="3"></rect>
                    <rect id="Rectangle-22" x="0" y="74" width="67" height="3"></rect>
                    <rect id="Rectangle-21" x="0" y="82" width="64" height="3"></rect>
                    <rect id="Rectangle-20" x="0" y="90" width="61" height="3"></rect>
                    <rect id="Rectangle-19" x="0" y="98" width="58" height="3"></rect>
                    <rect id="Rectangle-32" x="0" y="106" width="65" height="3"></rect>
                    <rect id="Rectangle-31" x="0" y="114" width="58" height="3"></rect>
                    <rect id="Rectangle-30" x="0" y="122" width="63" height="3"></rect>
                </g>
            </g>
        </g>
    </g>
</svg>