<?xml version="1.0" encoding="UTF-8" standalone="no"?>
<svg width="635px" height="217px" viewBox="0 0 635 217" version="1.1" xmlns="http://www.w3.org/2000/svg" xmlns:xlink="http://www.w3.org/1999/xlink" xmlns:sketch="http://www.bohemiancoding.com/sketch/ns">
    <!-- Generator: Sketch 3.0.4 (8053) - http://www.bohemiancoding.com/sketch -->
    <title>themanual-kickstarter</title>
    <desc>Created with Sketch.</desc>
    <defs>
        <path id="path-1" d="M0,0 L217.467056,0 L217.467056,216.922036 L0,216.922036"></path>
    </defs>
    <g id="Page-1" stroke="none" stroke-width="1" fill="none" fill-rule="evenodd" sketch:type="MSPage">
        <g id="themanual-kickstarter" sketch:type="MSLayerGroup">
            <g id="Rectangle-1-+-Shape-3-+-kickstarter-logo-k-color">
                <g id="Rectangle-1-+-Shape-3" sketch:type="MSShapeGroup">
                    <rect id="Rectangle-1" fill="#000000" x="0" y="0" width="217.465753" height="217"></rect>
                    <path d="M64.9459904,49.8460564 L67.4940199,49.8460564 L67.4940199,49.476 L73.6820916,49.476 L73.6820916,49.8460564 C89.1514321,49.9274629 91.9277271,64.4170026 103.530437,68.3488777 L106.442471,68.3488777 L106.442471,68.7189342 L111.53853,68.7189342 L111.53853,68.3488777 C126.881109,65.1067293 125.070706,54.0854343 141.75088,49.8460564 L143.934905,49.8460564 L143.934905,49.476 L150.122977,49.476 L150.122977,49.8460564 C158.946109,49.5201807 162.72343,55.6959509 167.959183,58.3573542 C167.959183,63.2914399 168.08048,68.2270668 167.959183,73.1596113 C167.935499,74.1227214 166.809255,71.6205072 166.139162,70.9392727 C164.743813,69.5207231 163.530465,67.9171452 162.135116,66.4985956 C158.78546,63.0932461 155.997268,60.4979435 150.486981,59.0974671 C130.136465,59.4940882 131.759394,73.4786757 114.086559,77.9703448 L111.902534,77.9703448 L111.902534,78.3404013 L106.078467,78.3404013 L106.078467,77.9703448 C89.6467823,77.2332544 87.4841822,62.6053608 73.6820916,59.0974671 C59.5758038,58.4411147 56.2519277,66.4558582 49.6578134,73.1596113 C49.345825,56.2457374 49.5854573,57.0989363 58.7579187,52.4364514 C60.4516927,51.4408594 62.8766938,50.371982 64.9459904,49.8460564 Z M84.9662222,79.0805141 C92.5776428,82.9323204 96.4716854,89.339074 106.078467,91.2923762 L111.53853,91.2923762 L111.53853,90.9223197 C124.083266,88.556676 127.71784,79.4174033 140.294863,76.8601755 C152.653234,75.4859391 157.675883,79.9593058 164.683145,83.5211912 C165.932518,84.1562641 166.587726,86.1545688 167.959183,86.8516991 C167.959183,91.0456719 168.080466,95.2414575 167.959183,99.4336176 C167.924543,100.63098 165.434757,95.9300796 163.591133,94.9929404 C158.030697,92.1664964 157.760116,88.3301585 149.030964,86.1115862 C132.064193,85.3879681 128.795883,95.6825083 116.634589,99.803674 L114.450564,99.803674 L114.450564,100.17373 L112.266538,100.17373 L112.266538,100.543787 L105.714462,100.543787 L105.714462,100.17373 C91.8470881,99.5335847 88.2614677,89.0769193 76.5941253,86.1115862 C57.0567707,85.2096705 58.2777928,95.2369949 50.0218176,99.4336176 C50.0218176,95.2396447 49.9005353,91.0438591 50.0218176,86.8516991 C50.1150778,83.6281324 64.6648067,77.5834489 68.2220283,76.8601755 C75.5716661,73.7590482 80.0354194,79.0805141 84.9662222,79.0805141 L84.9662222,79.0805141 Z M117.726602,112.385592 C123.760997,109.681195 128.681465,105.717514 135.926812,104.244351 L138.474842,104.244351 L138.474842,103.874295 L147.574947,103.874295 L147.574947,104.244351 L149.758972,104.244351 L149.758972,104.614408 C158.186966,104.261184 162.049239,111.12297 167.959183,113.125705 C167.959183,116.82627 168.080451,120.528888 167.959183,124.227398 C167.9333,125.016799 166.834062,123.100399 166.139162,122.747172 C164.767979,122.050182 163.513323,121.5579 162.49912,120.526834 C159.223218,117.196464 153.770463,114.792851 148.66696,113.495762 L146.11893,113.495762 L146.11893,113.125705 L139.930859,113.125705 L139.930859,113.495762 C130.685105,113.808571 126.756772,119.19366 119.546623,121.637003 L116.998593,121.637003 L116.998593,122.00706 L114.814568,122.00706 L114.814568,122.377116 L112.266538,122.377116 L112.266538,122.747172 L105.714462,122.747172 L105.714462,122.377116 C103.787037,122.778909 102.203226,121.885227 100.982408,121.637003 C92.2352962,120.550834 88.5682876,115.52142 80.5981716,113.495762 L78.0501421,113.495762 L78.0501421,113.125705 L71.8620705,113.125705 L71.8620705,113.495762 C61.3798879,113.660299 57.1305746,120.613922 50.0218176,124.227398 C50.0218176,120.526834 49.9005502,116.824215 50.0218176,113.125705 C50.0765229,111.457257 65.1505696,104.794845 67.8580241,104.244351 L70.4060536,104.244351 L70.4060536,103.874295 L79.1421548,103.874295 L79.1421548,104.244351 C90.2699117,104.770187 94.8748518,111.513828 104.62245,113.495762 C110.558485,116.037719 113.634619,112.385592 117.726602,112.385592 L117.726602,112.385592 Z M135.562808,130.518357 L134.470795,130.518357 L134.470795,130.888414 C127.848983,131.053131 123.540307,133.975729 118.45461,135.699147 L115.178572,135.699147 L115.178572,136.069204 L112.266538,136.069204 L112.266538,136.43926 L105.714462,136.43926 L105.714462,136.069204 L102.438425,136.069204 L102.438425,135.699147 C95.8209861,135.150332 91.8409225,132.358123 86.0582349,130.888414 L83.5102054,130.888414 L83.5102054,130.518357 L78.4141463,130.518357 L78.4141463,130.148301 L75.8661168,130.148301 L75.8661168,130.518357 L70.7700578,130.518357 L70.7700578,130.888414 C62.3806738,131.303295 57.0486891,135.393447 50.0218176,137.179373 C50.0218176,140.509881 49.900566,143.842671 50.0218176,147.170897 C50.0380094,147.615344 50.6988016,146.571427 51.1138302,146.430784 C52.7473354,145.877229 53.8250186,145.607735 55.1178766,144.950558 C59.2861607,142.831763 64.7265255,141.305772 69.314041,140.139824 L71.8620705,140.139824 L71.8620705,139.769768 L82.0541885,139.769768 L82.0541885,140.139824 C88.8824307,140.49456 93.4206892,143.491267 99.1623866,144.950558 L101.346412,144.950558 L101.346412,145.320614 L104.258446,145.320614 L104.258446,145.690671 L113.358551,145.690671 L113.358551,145.320614 L116.270585,145.320614 L116.270585,144.950558 C122.821283,144.432733 127.361923,141.576535 133.014779,140.139824 L135.562808,140.139824 L135.562808,139.769768 L146.11893,139.769768 L146.11893,140.139824 C154.329683,139.512076 160.931195,146.80084 167.959183,146.80084 C167.959183,143.593684 168.080428,140.384159 167.959183,137.179373 C167.947807,136.878661 166.685476,136.871097 166.503166,136.809317 C161.108633,134.981241 155.814773,132.335022 150.122977,130.888414 L147.210943,130.888414 L147.210943,130.518357 L142.478888,130.518357 L142.478888,130.148301 L139.20285,130.148301 L139.20285,130.518357 L135.562808,130.518357 L135.562808,130.518357 Z M162.49912,157.902533 L50.0218176,157.902533 L50.0218176,167.524 L167.959183,167.524 L167.959183,157.902533 L162.49912,157.902533 L162.49912,157.902533 Z" id="Shape-3" fill="#FFFFFF"></path>
                </g>
                <g id="kickstarter-logo-k-color" transform="translate(417.534247, 0.000000)">
                    <g id="Group-3">
                        <mask id="mask-2" sketch:name="Clip 2" fill="white">
                            <use xlink:href="#path-1"></use>
                        </mask>
                        <g id="Clip-2"></g>
                        <path d="M204.445154,217 L13.0219014,217 C5.82990526,217 0,211.181281 0,204.005988 L0,12.994012 C0,5.81741916 5.82990526,0 13.0219014,0 L204.445154,0 C211.635848,0 217.467056,5.81741916 217.467056,12.994012 L217.467056,204.005988 C217.467056,211.181281 211.635848,217 204.445154,217" id="Fill-1" fill="#161E15" sketch:type="MSShapeGroup" mask="url(#mask-2)"></path>
                    </g>
                    <path d="M99.5003486,89.6222994 L121.292501,58.117018 C125.41263,52.1813533 130.730775,49.213521 137.252143,49.213521 C142.57159,49.213521 147.17353,51.0963533 151.065776,54.8633174 C154.954116,58.6302814 156.898286,63.1392036 156.898286,68.3900838 C156.898286,72.2713952 155.870858,75.6966168 153.810793,78.6644491 L134.162046,107.173311 L158.186152,137.566305 C160.588692,140.591311 161.789312,144.13088 161.789312,148.182413 C161.789312,153.54894 159.90374,158.155317 156.127389,162.008042 C152.35234,165.862066 147.773839,167.786479 142.399701,167.786479 C136.50729,167.786479 132.018641,165.876359 128.928544,162.050922 L99.5003486,125.409108 L99.5003486,145.614796 C99.5003486,151.38024 98.5002666,155.859275 96.4974982,159.055802 C92.8370417,164.87582 87.5175949,167.786479 80.5404602,167.786479 C74.1909811,167.786479 69.2700045,165.646365 65.7827393,161.366138 C62.5220552,157.427653 60.8930153,152.20406 60.8930153,145.700557 L60.8930153,70.787479 C60.8930153,64.6231198 62.5494012,59.5450599 65.8686839,55.5494012 C69.3572513,51.3263473 74.1610307,49.213521 80.2813243,49.213521 C86.1164384,49.213521 90.9775141,51.3263473 94.8671561,55.5494012 C97.0405114,57.8883234 98.4130199,60.2571317 98.9846813,62.6545269 C99.3284595,64.1397425 99.5003486,66.9061677 99.5003486,70.959 L99.5003486,89.6222994" id="Fill-4" fill="#FFFFFF" sketch:type="MSShapeGroup"></path>
                </g>
            </g>
            <path d="M340.916712,137.95992 L347.023151,131.86656 L323.067123,107.96184 L347.023151,84.21336 L340.916712,78.12 L317.11726,102.02472 L293.161233,78.12 L287.054795,84.21336 L311.010822,107.96184 L287.054795,131.86656 L293.161233,137.95992 L316.960685,114.0552 L340.916712,137.95992 Z" id="×" fill="#FFFFFF" sketch:type="MSShapeGroup"></path>
        </g>
    </g>
</svg>