<?xml version="1.0" encoding="UTF-8" standalone="no"?>
<svg width="302px" height="184px" viewBox="0 0 302 184" version="1.1" xmlns="http://www.w3.org/2000/svg" xmlns:xlink="http://www.w3.org/1999/xlink" xmlns:sketch="http://www.bohemiancoding.com/sketch/ns">
    <!-- Generator: Sketch 3.0.4 (8053) - http://www.bohemiancoding.com/sketch -->
    <title>big-devices-issue-4</title>
    <desc>Created with Sketch.</desc>
    <defs></defs>
    <g id="Page-1" stroke="none" stroke-width="1" fill="none" fill-rule="evenodd" sketch:type="MSPage">
        <g id="big-devices-issue-4" sketch:type="MSLayerGroup" stroke="#00CFB5">
            <rect id="Rectangle-1" fill="#FFFFFF" sketch:type="MSShapeGroup" x="44" y="0" width="124" height="184" rx="5"></rect>
            <rect id="Rectangle-2" fill="#FFFFFF" sketch:type="MSShapeGroup" x="54" y="18" width="104" height="150"></rect>
            <rect id="Rectangle-17-copy" fill="#FFFFFF" sketch:type="MSShapeGroup" x="104" y="173" width="5" height="5"></rect>
            <rect id="Rectangle-7" fill="#FFFFFF" sketch:type="MSShapeGroup" x="0" y="51" width="90" height="133" rx="4"></rect>
            <rect id="Rectangle-8" fill="#FFFFFF" sketch:type="MSShapeGroup" x="9" y="64" width="72" height="98"></rect>
            <rect id="Rectangle-16" sketch:type="MSShapeGroup" x="37" y="172" width="15" height="1"></rect>
            <rect id="Rectangle-5" fill="#FFFFFF" sketch:type="MSShapeGroup" x="70" y="89" width="51" height="95" rx="4"></rect>
            <rect id="Rectangle-6" fill="#FFFFFF" sketch:type="MSShapeGroup" x="77" y="103" width="38" height="69"></rect>
            <rect id="Rectangle-17" fill="#FFFFFF" sketch:type="MSShapeGroup" x="93" y="175" width="5" height="5" rx="8"></rect>
            <rect id="Rectangle-3" fill="#FFFFFF" sketch:type="MSShapeGroup" x="256" y="28" width="21" height="156"></rect>
            <rect id="Rectangle-44" sketch:type="MSShapeGroup" x="266" y="161" width="1" height="12"></rect>
            <rect id="Rectangle-44-copy" sketch:type="MSShapeGroup" x="266" y="38" width="1" height="61"></rect>
            <rect id="Rectangle-3-copy" fill="#FFFFFF" sketch:type="MSShapeGroup" x="281" y="28" width="21" height="156"></rect>
            <rect id="Rectangle-44-copy" sketch:type="MSShapeGroup" x="291" y="161" width="1" height="12"></rect>
            <rect id="Rectangle-44-copy-2" sketch:type="MSShapeGroup" x="291" y="38" width="1" height="61"></rect>
            <rect id="Rectangle-3" fill="#FFFFFF" sketch:type="MSShapeGroup" x="135" y="28" width="116" height="156"></rect>
            <rect id="Rectangle-42" sketch:type="MSShapeGroup" x="155" y="101" width="77" height="1"></rect>
            <rect id="Rectangle-42-copy" sketch:type="MSShapeGroup" x="170" y="110" width="46" height="1"></rect>
        </g>
    </g>
</svg>