<?xml version="1.0" encoding="UTF-8" standalone="no"?>
<svg width="13px" height="16px" viewBox="0 0 13 16" version="1.1" xmlns="http://www.w3.org/2000/svg" xmlns:xlink="http://www.w3.org/1999/xlink" xmlns:sketch="http://www.bohemiancoding.com/sketch/ns">
    <!-- Generator: Sketch 3.1.1 (8761) - http://www.bohemiancoding.com/sketch -->
    <title>icon-locked</title>
    <desc>Created with Sketch.</desc>
    <defs></defs>
    <g id="Page-1" stroke="none" stroke-width="1" fill="none" fill-rule="evenodd" sketch:type="MSPage">
        <path d="M11,7 L11,4 C11.2851033,1.95263058 9.17162853,0.0011378707 7,1.50990331e-14 C6.53249278,0.0011378707 6.50890543,-0.000640052271 6,1.50990331e-14 C6.45065911,-0.000195571527 6.41720358,0.00158235145 6,1.50990331e-14 C3.78336296,0.00158235145 1.67085092,1.9532973 2,4 L2,7 L0,7 L0,16 L13,16 L13,7 L11,7 L11,7 Z M4,4 C4,3.01818014 5.08177926,2.0018504 6,2 C6.44870344,2.0018504 6.52866211,2 7,2 C6.52866211,2 6.56901048,2.0013878 7,2 C7.91822074,2.0013878 9,3.01771754 9,4 L9,7 L4,7 L4,4 L4,4 Z" id="icon-locked" fill="#B3B3B3" sketch:type="MSShapeGroup"></path>
    </g>
</svg>