<?xml version="1.0" encoding="UTF-8" standalone="no"?>
<svg width="19px" height="16px" viewBox="0 0 19 16" version="1.1" xmlns="http://www.w3.org/2000/svg" xmlns:xlink="http://www.w3.org/1999/xlink">
    <g id="Page-1" stroke="none" stroke-width="1" fill="none" fill-rule="evenodd">
        <path d="M17.5,3 L4.75389099,3 L4,0 L3,0 L0,0 L0,2 L2.50259399,2 L2.50259399,2 L5.01556396,12 L6.50778198,12 L15.5,12 L17,12 L19,3 L17.5,3 L17.5,3 Z M16.5555556,5 L5.25648499,5 L6.51296997,10 L15.4444444,10 L16.5555556,5 L16.5555556,5 Z M14.5000061,15.9000061 C15.2732048,15.9000061 15.9000061,15.2732048 15.9000061,14.5000061 C15.9000061,13.7268075 15.2732048,13.1000061 14.5000061,13.1000061 C13.7268075,13.1000061 13.1000061,13.7268075 13.1000061,14.5000061 C13.1000061,15.2732048 13.7268075,15.9000061 14.5000061,15.9000061 Z M7.5000061,15.9000061 C8.27320475,15.9000061 8.9000061,15.2732048 8.9000061,14.5000061 C8.9000061,13.7268075 8.27320475,13.1000061 7.5000061,13.1000061 C6.72680745,13.1000061 6.1000061,13.7268075 6.1000061,14.5000061 C6.1000061,15.2732048 6.72680745,15.9000061 7.5000061,15.9000061 Z" class="icon-cart" fill="#000000"></path>
    </g>
</svg>