<?xml version="1.0" encoding="UTF-8" standalone="no"?>
<svg width="34px" height="17px" viewBox="0 0 34 17" version="1.1" xmlns="http://www.w3.org/2000/svg" xmlns:xlink="http://www.w3.org/1999/xlink">
    <g stroke="none" stroke-width="1" fill="none" fill-rule="evenodd">
        <path d="M32.5,3 L18.6958994,3 L18,0 L16.5,0 L13,0 L13,2 L16.4639329,2 L16.4639329,2 L19.015564,13 L20.507782,13 L30.5,13 L32,13 L34,3 L32.5,3 Z M31.6,5 L19.1598323,5 L20.551631,11 L30.4,11 L31.6,5 L31.6,5 Z M4,7 L4,3 L6,3 L6,7 L10,7 L10,9 L6,9 L6,13 L4,13 L4,9 L0,9 L0,7 L4,7 L4,7 Z M29.5000061,16.9000061 C30.2732048,16.9000061 30.9000061,16.2732048 30.9000061,15.5000061 C30.9000061,14.7268075 30.2732048,14.1000061 29.5000061,14.1000061 C28.7268075,14.1000061 28.1000061,14.7268075 28.1000061,15.5000061 C28.1000061,16.2732048 28.7268075,16.9000061 29.5000061,16.9000061 Z M21.5000061,16.9000061 C22.2732048,16.9000061 22.9000061,16.2732048 22.9000061,15.5000061 C22.9000061,14.7268075 22.2732048,14.1000061 21.5000061,14.1000061 C20.7268075,14.1000061 20.1000061,14.7268075 20.1000061,15.5000061 C20.1000061,16.2732048 20.7268075,16.9000061 21.5000061,16.9000061 Z" class="icon-add-to-cart" fill="#000000"></path>
    </g>
</svg>