<?xml version="1.0" encoding="UTF-8" standalone="no"?>
<svg width="59px" height="58px" viewBox="0 0 59 58" version="1.1" xmlns="http://www.w3.org/2000/svg" xmlns:xlink="http://www.w3.org/1999/xlink" xmlns:sketch="http://www.bohemiancoding.com/sketch/ns">
    <!-- Generator: Sketch 3.0.4 (8053) - http://www.bohemiancoding.com/sketch -->
    <title>logo-nav</title>
    <desc>Created with Sketch.</desc>
    <defs></defs>
    <g id="Page-1" stroke="none" stroke-width="1" fill="none" fill-rule="evenodd" sketch:type="MSPage">
        <g id="collapsed" sketch:type="MSArtboardGroup" transform="translate(-72.000000, -159.000000)" fill="#FFFFFF">
            <g id="logo-2" sketch:type="MSLayerGroup" transform="translate(42.000000, 128.000000)">
                <path d="M39,31 C38.9401762,31.1794872 39.356131,31.1794872 40,31 C39.7720858,31.1196581 39.7720858,31.0598291 40,31 L43,31 C42.8026138,31.0598291 42.8026138,31.1196581 43,31 C50.378523,31.2189715 51.7381775,38.2467824 57,40 C57.8958314,40.1538462 58.3712083,40.1538462 59,40 C58.8465853,40.2136752 58.8465853,40.2735043 59,40 C59.6784949,40.3333333 60.5104045,40.3333333 61,40 C61.3423142,40.2735043 61.3423142,40.2136752 61,40 C68.8561436,38.5813182 67.969522,33.2356979 76,31 C76.4949539,31.1794872 76.8514866,31.1794872 77,31 C77.2080193,31.1196581 77.2080193,31.0598291 77,31 L80,31 C80.2385473,31.0598291 80.2385473,31.1196581 80,31 C84.5595623,31.0214288 86.4094562,34.0168411 89,35 C88.9735984,37.7008547 89.033002,40.0947646 89,42 C88.9619995,42.9543134 88.410436,41.7406732 88,41 C87.3989123,40.7222222 86.8046912,39.9444444 86,39 C84.4808864,37.6047254 83.1154056,36.3459349 80,36 C70.450412,35.8590384 71.2452204,42.6419342 63,45 C62.2336459,44.8205128 61.8771132,44.8205128 62,45 C61.5205805,44.8803419 61.5205805,44.9401709 62,45 L59,45 C58.6683189,44.9401709 58.6683189,44.8803419 59,45 C50.6211143,44.4630044 49.5620089,37.3680881 43,36 C35.8942421,35.3483184 34.2664168,39.2356815 31,42 C30.8842424,34.2835021 31.0015992,34.6973262 35,32 C36.3231973,31.9530089 37.5108102,31.434575 39,31 Z M48,46 C51.9357503,47.4279448 53.8490388,50.5463135 59,51 C59.4634534,51.4970472 60.3576977,51.4970472 61,51 C61.251942,51.4370078 61.251942,51.3769684 61,51 C67.4156393,50.1654958 69.2014409,45.717124 75,44 C81.4531313,43.8035567 83.9209458,45.980885 87,48 C87.9777391,48.0236768 88.299667,48.9963146 89,49 C88.9735153,51.3769684 89.0331058,53.4191894 89,55 C88.9564951,56.0424399 87.7331707,53.7543634 87,53 C84.0952792,51.922509 83.9623326,50.0552426 80,49 C71.3369663,48.6231859 69.7311239,53.6338627 64,56 C63.3981283,55.6397638 63.0404306,55.6397638 63,56 C62.6827329,55.6998031 62.6827329,55.7598425 63,56 C62.3250352,55.8198819 61.9673375,55.8198819 62,56 C61.6096397,55.8799213 61.6096397,55.9399606 62,56 L58,56 C58.3903603,55.9399606 58.3903603,55.8799213 58,56 C51.5768015,55.5083028 49.8150523,50.4187146 44,49 C34.4830198,48.5364029 35.0829535,53.4170173 31,55 C31.0264847,53.4183071 30.9668942,51.3760861 31,49 C31.0723069,47.7666185 38.2211319,44.8244807 40,44 C43.5800791,42.9630245 45.7732877,45.5531495 48,46 L48,46 Z M64,62 C67.2572974,60.8268294 69.6749073,58.8972887 73,58 C73.6521312,58.1801454 74.0694452,58.1801454 74,58 C74.4867593,58.1200969 74.4867593,58.0600485 74,58 L79,58 C78.9579813,58.0600485 78.9579813,58.1200969 79,58 C79.3156791,58.1801454 79.6733768,58.1801454 80,58 C80.0310746,58.2401939 80.0310746,58.3002423 80,58 C84.1720629,58.1883398 86.0697421,61.5286926 89,63 C88.9735186,64.3050887 89.0331018,66.1075426 89,68 C88.9608013,68.2922808 88.4207043,67.3593676 88,67 C87.4055605,66.8481162 86.7891014,66.608471 86,66 C84.6812121,64.4853012 82.00207,63.3152101 79,63 C79.0772139,62.6837802 78.6598998,62.6837802 78,63 C78.2425858,62.6237317 78.2425858,62.5636832 78,63 C77.2291088,62.5036348 76.2156318,62.5036348 75,63 C75.2021548,62.5636832 75.2021548,62.6237317 75,63 C70.6593702,62.8360572 68.7292335,65.4575464 65,67 C64.7693035,66.6469788 64.3519894,66.6469788 64,67 C63.9346754,66.7070272 63.9346754,66.7670757 64,67 C63.5769776,66.8271241 63.2192798,66.8271241 63,67 C62.8615821,66.8871726 62.8615821,66.9472211 63,67 C62.444268,67.0072695 62.026954,67.0072695 62,67 C61.6096399,67.067318 61.6096399,67.1273665 62,67 C60.5365466,67.1874149 59.4634534,67.1874149 58,67 C58.3903601,67.1273665 58.3903601,67.067318 58,67 C57.443344,67.2028642 56.6651586,66.7678152 56,67 C51.7675417,66.118226 49.9658033,63.6698811 46,63 C45.6324733,62.6837802 45.2151592,62.6837802 45,63 C44.7978452,62.6237317 44.7978452,62.5636832 45,63 C43.7843682,62.5036348 42.7708912,62.5036348 42,63 C41.7574142,62.5636832 41.7574142,62.6237317 42,63 C36.607126,62.763878 34.5192795,66.1489375 31,68 C31.0264814,66.1065426 30.9668982,64.3040887 31,63 C31.0533602,61.6914256 38.4598029,58.4481288 40,58 C40.2073906,58.1801454 40.6247047,58.1801454 41,58 C41.0420187,58.1200969 41.0420187,58.0600485 41,58 L45,58 C45.3343918,58.0600485 45.3343918,58.1200969 45,58 C50.8018748,58.436125 53.0644541,61.7189645 58,63 C60.7704093,63.9212182 62.2818292,62.143344 64,62 L64,62 Z M73,71 C72.8771219,71.1728023 72.698273,71.1728023 73,71 C72.5194241,71.2304031 72.5194241,71.2880039 73,71 C69.2658796,71.4225214 67.1488659,72.7872636 65,74 C64.1135255,73.5920348 63.5769788,73.5920348 63,74 C63.0404321,73.6496355 63.0404321,73.7072363 63,74 C62.5635017,73.7648371 62.0865713,73.7648371 62,74 C61.6096409,73.8224379 61.6096409,73.8800386 62,74 C60.5365474,73.9376394 59.463454,73.9376394 58,74 C58.3903606,73.8800386 58.3903606,73.8224379 58,74 C57.8538138,73.7648371 57.3172671,73.7648371 57,74 C56.7807204,73.7072363 56.7807204,73.6496355 57,74 C53.529325,73.3357587 51.5737707,72.0319029 49,71 C48.3152055,71.3456046 47.8978914,71.3456046 47,71 C47.4805773,71.2880039 47.4805773,71.2304031 47,71 C46.6459491,71.1728023 45.8113209,71.1728023 45,71 C44.9766926,71.1152015 44.9766926,71.0576008 45,71 L44,71 C43.7247503,71.0576008 43.7247503,71.1152015 44,71 C42.8901221,71.1728023 42.0554938,71.1728023 41,71 C41.2208656,71.2304031 41.2208656,71.2880039 41,71 C37.098847,71.5393386 34.4790432,73.4492841 31,74 C31.026478,75.8384649 30.9669025,77.3947514 31,79 C31.0344336,79.1564469 31.3591056,78.668977 32,79 C32.365627,78.3448128 32.8951331,78.2189695 34,78 C35.5783968,76.922696 38.2514518,76.210116 41,76 C40.9227841,75.6656626 41.3400982,75.6656626 42,76 C41.7574123,75.6080618 41.7574123,75.550461 42,75 C43.4266688,75.4928603 45.0959252,75.4928603 47,75 C46.7651817,75.550461 46.7651817,75.6080618 47,76 C50.1201528,75.8313106 52.3499692,77.2306592 55,78 C55.5287781,77.9120927 55.8864759,77.9120927 56,78 C56.2441737,77.9696935 56.2441737,78.0272943 56,78 C56.7211041,78.084895 57.1980345,78.084895 58,78 C57.6749649,78.1424958 57.6749649,78.2000966 58,78 C59.1653725,78.2576974 60.65578,78.2576974 62,78 C62.1461876,78.2000966 62.1461876,78.1424958 62,78 C62.623118,78.084895 63.1000484,78.084895 64,78 C63.5769788,78.0272943 63.5769788,77.9696935 64,78 C66.7955824,77.6702879 69.026569,76.3365521 72,76 C72.2213426,75.6656626 72.6386567,75.6656626 73,76 C73.0559708,75.6080618 73.0559708,75.550461 73,75 C74.7848436,75.4928603 76.5137163,75.4928603 78,75 C78.2425891,75.550461 78.2425891,75.6080618 78,76 C82.2768396,75.372528 85.5204096,78.7761043 89,79 C88.9735234,77.2784842 89.0330957,75.7797577 89,74 C88.9679337,74.1428231 88.3477035,74.1392908 88,74 C85.6075917,73.2567998 83.0065199,72.0211158 80,71 C79.7329966,71.3456046 79.2560662,71.3456046 79,71 C78.7791358,71.2880039 78.7791358,71.2304031 79,71 C78.0041239,71.1728023 77.229112,71.1728023 76,71 C76.4541,71.1152015 76.4541,71.0576008 76,71 L75,71 C74.8444599,71.0576008 74.8444599,71.1152015 75,71 C74.2482969,71.1728023 73.6521338,71.1728023 73,71 L73,71 Z M86,84 L31,84 L31,89 L89,89 L89,84 L86,84 L86,84 Z" id="logo-nav" sketch:type="MSShapeGroup"></path>
            </g>
        </g>
    </g>
</svg>