<?xml version="1.0" encoding="UTF-8" standalone="no"?>
<svg width="338px" height="94px" viewBox="0 0 338 94" version="1.1" xmlns="http://www.w3.org/2000/svg" xmlns:xlink="http://www.w3.org/1999/xlink" xmlns:sketch="http://www.bohemiancoding.com/sketch/ns">
    <!-- Generator: Sketch 3.0.3 (7891) - http://www.bohemiancoding.com/sketch -->
    <title>banner-subscription</title>
    <desc>Created with Sketch.</desc>
    <defs></defs>
    <g id="Page-1" stroke="none" stroke-width="1" fill="none" fill-rule="evenodd" sketch:type="MSPage">
        <g id="Artboard-1" sketch:type="MSArtboardGroup" transform="translate(-279.000000, -96.000000)">
            <g id="banner-subscription" sketch:type="MSLayerGroup" transform="translate(280.000000, 97.000000)">
                <g id="5">
                    <rect id="Rectangle-2" stroke="#000000" stroke-width="2" fill="#FFFFFF" sketch:type="MSShapeGroup" x="0" y="0.01953125" width="65" height="91"></rect>
                    <rect id="Rectangle-3" stroke="#000000" stroke-width="2" fill="#FFFFFF" sketch:type="MSShapeGroup" x="12" y="0.01953125" width="53" height="91"></rect>
                    <text id="4" sketch:type="MSTextLayer" font-family="FranklinGothic URW" font-size="23" font-weight="420" sketch:alignment="middle" line-spacing="23" fill="#000000">
                        <tspan x="30.2495" y="54">5</tspan>
                    </text>
                </g>
                <g id="6" transform="translate(135.000000, 0.000000)">
                    <rect id="Rectangle-2" stroke="#000000" stroke-width="2" fill="#FFFFFF" sketch:type="MSShapeGroup" x="0" y="0.01953125" width="65" height="91"></rect>
                    <rect id="Rectangle-3" stroke="#000000" stroke-width="2" fill="#FFFFFF" sketch:type="MSShapeGroup" x="12" y="0.01953125" width="53" height="91"></rect>
                    <text id="4" sketch:type="MSTextLayer" font-family="FranklinGothic URW" font-size="23" font-weight="420" sketch:alignment="middle" line-spacing="23" fill="#000000">
                        <tspan x="30.2495" y="54">6</tspan>
                    </text>
                </g>
                <g id="7" transform="translate(271.000000, 0.000000)">
                    <rect id="Rectangle-2" stroke="#000000" stroke-width="2" fill="#FFFFFF" sketch:type="MSShapeGroup" x="0" y="0.01953125" width="65" height="91"></rect>
                    <rect id="Rectangle-3" stroke="#000000" stroke-width="2" fill="#FFFFFF" sketch:type="MSShapeGroup" x="12" y="0.01953125" width="53" height="91"></rect>
                    <text id="4" sketch:type="MSTextLayer" font-family="FranklinGothic URW" font-size="23" font-weight="420" sketch:alignment="middle" line-spacing="23" fill="#000000">
                        <tspan x="30.2495" y="54">7</tspan>
                    </text>
                </g>
                <g id="Rectangle-8" transform="translate(90.000000, 36.000000)" fill="#7F7F7F" sketch:type="MSShapeGroup">
                    <path d="M9,9 L9,0 L11,0 L11,9 L20,9 L20,11 L11,11 L11,20 L9,20 L9,11 L0,11 L0,9 L9,9 Z"></path>
                </g>
                <g id="plus" transform="translate(225.000000, 36.000000)" fill="#7F7F7F" sketch:type="MSShapeGroup">
                    <path d="M9,9 L9,0 L11,0 L11,9 L20,9 L20,11 L11,11 L11,20 L9,20 L9,11 L0,11 L0,9 L9,9 Z" id="Rectangle-8"></path>
                </g>
            </g>
        </g>
    </g>
</svg>