<?xml version="1.0" encoding="utf-8"?>
<!-- Generator: Adobe Illustrator 18.0.0, SVG Export Plug-In . SVG Version: 6.00 Build 0)  -->
<!DOCTYPE svg PUBLIC "-//W3C//DTD SVG 1.1//EN" "http://www.w3.org/Graphics/SVG/1.1/DTD/svg11.dtd">
<svg version="1.1" id="Layer_1" xmlns="http://www.w3.org/2000/svg" xmlns:xlink="http://www.w3.org/1999/xlink" x="0px" y="0px"
	 viewBox="0 0 415.8 449" enable-background="new 0 0 415.8 449" xml:space="preserve">
<g>
	
		<rect x="163" y="175.1" transform="matrix(-0.999 -4.500838e-02 4.500838e-02 -0.999 334.1726 427.2352)" fill="#E1E6E3" width="17.8" height="69.5"/>
	
		<rect x="130.5" y="241.4" transform="matrix(0.999 4.500834e-02 -4.500834e-02 0.999 12.0989 -6.6796)" fill="#FFFFFF" width="47.8" height="47.8"/>
	
		<rect x="243" y="178.7" transform="matrix(-0.999 -4.500838e-02 4.500838e-02 -0.999 493.9641 438.0432)" fill="#E1E6E3" width="17.8" height="69.5"/>
	
		<rect x="165.2" y="154.3" transform="matrix(0.999 4.500834e-02 -4.500834e-02 0.999 8.1099 -10.4029)" fill="#FFFFFF" width="139.8" height="41.2"/>
	<polygon fill="#E1E6E3" points="304,198.6 305.8,157.5 262,197.5 	"/>
	
		<rect x="210.3" y="245" transform="matrix(0.999 4.500834e-02 -4.500834e-02 0.999 12.3416 -10.2677)" fill="#FFFFFF" width="47.8" height="47.8"/>
</g>
</svg>
