<?xml version="1.0" encoding="utf-8"?>
<!-- Generator: Adobe Illustrator 18.0.0, SVG Export Plug-In . SVG Version: 6.00 Build 0)  -->
<!DOCTYPE svg PUBLIC "-//W3C//DTD SVG 1.1//EN" "http://www.w3.org/Graphics/SVG/1.1/DTD/svg11.dtd">
<svg version="1.1" id="Layer_1" xmlns="http://www.w3.org/2000/svg" xmlns:xlink="http://www.w3.org/1999/xlink" x="0px" y="0px"
	 viewBox="0 0 415.8 449" enable-background="new 0 0 415.8 449" xml:space="preserve">
<g>
	
		<rect x="24.9" y="279.5" transform="matrix(1 5.785090e-03 -5.785090e-03 1 1.7102 -0.8772)" fill="#E1E6E3" width="255.1" height="31.3"/>
	
		<rect x="151.9" y="128" transform="matrix(1 5.785090e-03 -5.785090e-03 1 1.1856 -1.5831)" fill="#E1E6E3" width="244.6" height="152.2"/>
	
		<rect x="175.7" y="152.8" transform="matrix(1 5.785090e-03 -5.785090e-03 1 1.1905 -1.4912)" fill="#FFFFFF" width="165.3" height="104.5"/>
	
		<rect x="364.7" y="128.6" transform="matrix(1 5.785090e-03 -5.785090e-03 1 1.1909 -2.1985)" fill="#FFFFFF" width="31.8" height="152.2"/>
	
		<rect x="279.5" y="280.6" transform="matrix(1 5.785090e-03 -5.785090e-03 1 1.7195 -1.9495)" fill="#FFFFFF" width="116.7" height="31.3"/>
	<polygon fill="#E1E6E3" points="396.1,312.2 365.1,280.8 396.3,281 	"/>
	<polygon fill="#E1E6E3" points="397,159.9 365.9,128.5 397.2,128.7 	"/>
	<polygon fill="#FFFFFF" points="279.6,280.3 247,312.4 247.2,279.3 	"/>
	<polygon fill="#FFFFFF" points="24.8,310.3 56.4,279 25,278.9 	"/>
</g>
</svg>
