<?xml version="1.0" encoding="utf-8"?>
<!-- Generator: Adobe Illustrator 18.0.0, SVG Export Plug-In . SVG Version: 6.00 Build 0)  -->
<!DOCTYPE svg PUBLIC "-//W3C//DTD SVG 1.1//EN" "http://www.w3.org/Graphics/SVG/1.1/DTD/svg11.dtd">
<svg version="1.1" id="Layer_1" xmlns="http://www.w3.org/2000/svg" xmlns:xlink="http://www.w3.org/1999/xlink" x="0px" y="0px"
	 viewBox="0 0 415.8 449" enable-background="new 0 0 415.8 449" xml:space="preserve">
<g>
	
		<rect x="133" y="117.1" transform="matrix(0.9998 -1.803753e-02 1.803753e-02 0.9998 -4.0353 3.7455)" fill="#E1E6E3" width="145.3" height="217"/>
	
		<rect x="134.7" y="305.1" transform="matrix(0.9998 -1.803753e-02 1.803753e-02 0.9998 -5.7309 3.7914)" fill="#FFFFFF" width="145.3" height="28.9"/>
	
		<rect x="191.7" y="261.9" transform="matrix(0.9998 -1.803753e-02 1.803753e-02 0.9998 -4.9506 3.7703)" fill="#FFFFFF" width="29.6" height="28.9"/>
	
		<rect x="154" y="138.5" transform="matrix(0.9998 -1.803753e-02 1.803753e-02 0.9998 -3.4626 3.73)" fill="#FFFFFF" width="102.1" height="110.6"/>
	<polygon fill="#E1E6E3" points="134.9,335.4 165.8,305.4 166.3,334.9 	"/>
	<polygon fill="#E1E6E3" points="280.2,332.7 248.8,304.1 249.3,333.3 	"/>
</g>
</svg>
