<?xml version="1.0" encoding="UTF-8" standalone="no"?>
<svg preserveAspectRatio="xMaxYMax meet" viewBox="0 0 80 79" version="1.1" xmlns="http://www.w3.org/2000/svg">
    <title>The Manual</title>
    <desc />
    <defs />
    <g stroke="none" stroke-width="0" fill="none" fill-rule="evenodd">
      <path d="M0,73 L80,73 L80,79 L0,79 L0,73 L0,73 Z M26.7487584,63.194961 C29.9766424,64.082176 33.314738,65 39.9995465,65 C46.685262,65 50.0229041,64.082176 53.250788,63.194961 C56.264145,62.366612 59.1101435,61.583942 65.158174,61.583942 C70.487335,61.583942 75.767059,62.671768 80,63.883918 L80,57.0635743 C75.649137,55.9286555 70.471461,55 65.158174,55 C58.2846906,55 54.9003334,55.9305392 51.6275484,56.8299976 C48.6618137,57.6456322 45.8598091,58.4160584 39.9995465,58.4160584 C34.1397374,58.4160584 31.3381863,57.6456322 28.3719981,56.8299976 C25.0992131,55.9305392 21.7148559,55 14.8413724,55 C9.5285394,55 4.3504093,55.9286555 0,57.0635743 L0,63.878267 C4.2252307,62.668001 9.4990589,61.583942 14.8413724,61.583942 C20.8898565,61.583942 23.735855,62.366612 26.7487584,63.194961 L26.7487584,63.194961 Z M26.0979205,46.3810587 C29.3103839,48.0774518 32.9519015,50 39.9995465,50 C47.0471914,50 50.688709,48.0774518 53.901626,46.3810587 C56.890945,44.80304 59.4725265,43.4396613 65.158174,43.4396613 C70.48416,43.4396613 75.810599,45.6662061 80,48.059949 L80,40.8022605 C75.62646,38.6890235 70.473275,37 65.158174,37 C57.9227612,37 54.2322607,38.9483418 50.9767104,40.6673044 C48.0368279,42.2195295 45.4974261,43.5603387 39.9995465,43.5603387 C34.5021203,43.5603387 31.9631721,42.2195295 29.0232896,40.6673044 C25.7672858,38.9483418 22.0772388,37 14.8413724,37 C9.5262716,37 4.3730866,38.6890235 0,40.8022605 L0,48.0479734 C4.1807833,45.6592971 9.499966,43.4396613 14.8413724,43.4396613 C20.52702,43.4396613 23.1086015,44.80304 26.0979205,46.3810587 L26.0979205,46.3810587 Z M25.6330363,29.5758911 C28.923056,32.1183706 32.6525614,35 39.9995465,35 C47.3469851,35 51.0764905,32.1183706 54.3669637,29.5758911 C57.3866703,27.2421191 59.7718666,25.3989931 65.158174,25.3989931 C70.457854,25.3989931 75.823752,28.8156645 80,32.4058012 L80,24.3797128 C75.62782,21.3713027 70.490963,19 65.158174,19 C57.6229675,19 53.8449328,21.9191601 50.5113727,24.4950512 C47.5429168,26.7890039 45.198086,28.6010069 39.9995465,28.6010069 C34.8014604,28.6010069 32.4566297,26.7890039 29.4877203,24.4950512 C26.1546137,21.9191601 22.3765789,19 14.8413724,19 C9.5090369,19 4.371726,21.3713027 0,24.3797128 L0,32.4181589 C3.834728,29.137422 9.3992789,25.3989931 14.8413724,25.3989931 C20.2276799,25.3989931 22.6128762,27.2421191 25.6330363,29.5758911 L25.6330363,29.5758911 Z M14.8413724,6.2766174 C19.9573667,6.2766174 22.3067329,8.6824819 25.2806313,11.7280847 C28.4445654,14.9676291 32.3822482,19 39.9995465,19 C47.6172982,19 51.5549811,14.9676291 54.7189151,11.7280847 C57.6932671,8.6824819 60.04218,6.2766174 65.158174,6.2766174 C70.208858,6.2766174 75.642334,10.8647748 80,15.8830159 L80,6.8750532 C74.898973,2.3088937 69.924938,0 65.158174,0 C57.3526544,0 53.3641744,4.0839989 50.1594213,7.3657436 C47.2363199,10.3588205 44.9277729,12.7233826 39.9995465,12.7233826 C35.0717736,12.7233826 32.7632265,10.3588205 29.8401252,7.3657436 C26.635372,4.0839989 22.6468921,0 14.8413724,0 C10.0750618,0 5.1010273,2.3088937 0,6.8750532 L0,15.882567 C4.3576661,10.8643259 9.7911423,6.2766174 14.8413724,6.2766174 L14.8413724,6.2766174 Z" fill="#000000"></path>
    </g>
</svg>