<?xml version="1.0" encoding="UTF-8" standalone="no"?>
<svg width="160px" height="160px" viewBox="0 0 160 160" version="1.1" xmlns="http://www.w3.org/2000/svg" xmlns:xlink="http://www.w3.org/1999/xlink" xmlns:sketch="http://www.bohemiancoding.com/sketch/ns">
    <!-- Generator: Sketch 3.0.4 (8053) - http://www.bohemiancoding.com/sketch -->
    <title>logo-white-padded</title>
    <desc>Created with Sketch.</desc>
    <defs></defs>
    <g id="Page-1" stroke="none" stroke-width="1" fill="none" fill-rule="evenodd" sketch:type="MSPage">
        <g id="logo-white-padded" sketch:type="MSLayerGroup">
            <rect id="pad" fill="#000000" sketch:type="MSShapeGroup" x="0" y="0" width="160" height="160"></rect>
            <path d="M40,114 L120,114 L120,120 L40,120 L40,114 Z M66.7487584,104.194961 C69.9766424,105.082176 73.314738,106 79.9995465,106 C86.685262,106 90.0229041,105.082176 93.250788,104.194961 C96.264145,103.366612 99.1101435,102.583942 105.158174,102.583942 C110.487335,102.583942 115.767059,103.671768 120,104.883918 L120,98.0635743 C115.649137,96.9286555 110.471461,96 105.158174,96 C98.2846906,96 94.9003334,96.9305392 91.6275484,97.8299976 C88.6618137,98.6456322 85.8598091,99.4160584 79.9995465,99.4160584 C74.1397374,99.4160584 71.3381863,98.6456322 68.3719981,97.8299976 C65.0992131,96.9305392 61.7148559,96 54.8413724,96 C49.5285394,96 44.3504093,96.9286555 40,98.0635743 L40,104.878267 C44.2252307,103.668001 49.4990589,102.583942 54.8413724,102.583942 C60.8898565,102.583942 63.735855,103.366612 66.7487584,104.194961 M66.0979205,87.3810587 C69.3103839,89.0774518 72.9519015,91 79.9995465,91 C87.0471914,91 90.688709,89.0774518 93.901626,87.3810587 C96.890945,85.80304 99.4725265,84.4396613 105.158174,84.4396613 C110.48416,84.4396613 115.810599,86.6662061 120,89.059949 L120,81.8022605 C115.62646,79.6890235 110.473275,78 105.158174,78 C97.9227612,78 94.2322607,79.9483418 90.9767104,81.6673044 C88.0368279,83.2195295 85.4974261,84.5603387 79.9995465,84.5603387 C74.5021203,84.5603387 71.9631721,83.2195295 69.0232896,81.6673044 C65.7672858,79.9483418 62.0772388,78 54.8413724,78 C49.5262716,78 44.3730866,79.6890235 40,81.8022605 L40,89.0479734 C44.1807833,86.6592971 49.499966,84.4396613 54.8413724,84.4396613 C60.52702,84.4396613 63.1086015,85.80304 66.0979205,87.3810587 M65.6330363,70.5758911 C68.923056,73.1183706 72.6525614,76 79.9995465,76 C87.3469851,76 91.0764905,73.1183706 94.3669637,70.5758911 C97.3866703,68.2421191 99.7718666,66.3989931 105.158174,66.3989931 C110.457854,66.3989931 115.823752,69.8156645 120,73.4058012 L120,65.3797128 C115.62782,62.3713027 110.490963,60 105.158174,60 C97.6229675,60 93.8449328,62.9191601 90.5113727,65.4950512 C87.5429168,67.7890039 85.198086,69.6010069 79.9995465,69.6010069 C74.8014604,69.6010069 72.4566297,67.7890039 69.4877203,65.4950512 C66.1546137,62.9191601 62.3765789,60 54.8413724,60 C49.5090369,60 44.371726,62.3713027 40,65.3797128 L40,73.4181589 C43.834728,70.137422 49.3992789,66.3989931 54.8413724,66.3989931 C60.2276799,66.3989931 62.6128762,68.2421191 65.6330363,70.5758911 M54.8413724,47.2766174 C59.9573667,47.2766174 62.3067329,49.6824819 65.2806313,52.7280847 C68.4445654,55.9676291 72.3822482,60 79.9995465,60 C87.6172982,60 91.5549811,55.9676291 94.7189151,52.7280847 C97.6932671,49.6824819 100.04218,47.2766174 105.158174,47.2766174 C110.208858,47.2766174 115.642334,51.8647748 120,56.8830159 L120,47.8750532 C114.898973,43.3088937 109.924938,41 105.158174,41 C97.3526544,41 93.3641744,45.0839989 90.1594213,48.3657436 C87.2363199,51.3588205 84.9277729,53.7233826 79.9995465,53.7233826 C75.0717736,53.7233826 72.7632265,51.3588205 69.8401252,48.3657436 C66.635372,45.0839989 62.6468921,41 54.8413724,41 C50.0750618,41 45.1010273,43.3088937 40,47.8750532 L40,56.882567 C44.3576661,51.8643259 49.7911423,47.2766174 54.8413724,47.2766174" id="logo-white" fill="#FFFFFF" sketch:type="MSShapeGroup"></path>
        </g>
    </g>
</svg>