<?xml version="1.0" encoding="UTF-8" standalone="no"?>
<svg preserveAspectRatio="xMaxYMax meet" viewBox="0 0 496 142" version="1.1" xmlns="http://www.w3.org/2000/svg">
    <title>The Manual</title>
    <desc />
    <defs />
    <g id="Page-1" stroke="none" stroke-width="1" fill="none" fill-rule="evenodd">
        <g id="wordmark" fill="#44413D">
            <g id="word-the-manual" transform="translate(195.000000, 7.000000)">
                <g id="word-manual" transform="translate(2.000000, 81.000000)">
                    <path d="M267,0 L277,0 L277,43 L299,43 L299,53 L267,53 L267,0" id="word-manual-6"></path>
                    <path d="M235,34 L229,16 L224,34 L235,34 L235,34 Z M225,0 L234,0 L252,53 L241,53 L238,44 L220,44 L217,53 L207,53 L225,0 L225,0 Z" id="word-manual-5"></path>
                    <path d="M158,0 L168,0 L168,34 C168.163655,40.0271515 170.950012,44.1820005 178,44 C184.049988,44.1820005 186.836345,40.0271515 187,35 L187,0 L197,0 L197,34 C197,45.6170932 189.169807,54 178,54 C165.830193,54 158,45.6170932 158,34 L158,0" id="word-manual-4"></path>
                    <path d="M106,0 L115,0 L134,34 L134,0 L144,0 L144,53 L135,53 L116,19 L116,53 L106,53 L106,0" id="word-manual-3"></path>
                    <path d="M77.3903313,34 L71.390727,16 L66.3910568,34 L77.3903313,34 L77.3903313,34 Z M67.6,0 L76.4,0 L94,53 L83.2444444,53 L80.3111111,44 L62.7111111,44 L59.7777778,53 L50,53 L67.6,0 L67.6,0 Z" id="word-manual-2"></path>
                    <path d="M0,0 L10,0 L19,27 L28,0 L38,0 L38,53 L28,53 L28,20 L22,36 L16,36 L10,20 L10,53 L0,53 L0,0" id="word-manual-1"></path>
                </g>
                <g id="word-the">
                    <path d="M108,0 L140,0 L140,10 L118,10 L118,20 L138,20 L138,30 L118,30 L118,43 L140,43 L140,53 L108,53 L108,0" id="word-the-3"></path>
                    <path d="M65,1 L65,21 L83,21 L83,1 L93,1 L93,54 L83,54 L83,31 L65,31 L65,54 L55,54 L55,1 L65,1 Z" id="word-the-2"></path>
                    <path d="M0,10 L0,0 L42,0 L42,10 L27,10 L27,53 L16,53 L16,10 L0,10 Z" id="word-the-1"></path>
                </g>
            </g>
            <g id="mark">
                <path d="M0,130 L144,130 L144,141 L0,141 L0,130 Z" id="mark-1"></path>
                <path d="M48,112 C53.9581265,113.439926 59.9669178,115 72,115 C84.0340821,115 90.0408736,113.439926 96,112 C101.275483,110.522755 106.398306,109.193113 117,109 C126.877595,109.193113 136.380265,111.041472 144,113 L144,102 C136.168272,99.5787045 126.848596,98 117,98 C104.913357,98 98.8205687,99.5816462 93,101 C87.5909586,102.497837 82.5481337,103.806887 72,104 C61.4518663,103.806887 56.4090414,102.497837 51,101 C45.1784313,99.5816462 39.0866428,98 27,98 C17.1514045,98 7.8307281,99.5787045 0,102 L0,113 C7.60573591,111.035589 17.0984063,109.193113 27,109 C37.6016944,109.193113 42.7245165,110.522755 48,112" id="mark-2"></path>
                <path d="M47,83 C52.7591681,85.5983596 59.3139405,89 72,89 C84.6860595,89 91.239832,85.5983596 97,83 C102.403444,79.8051903 107.050283,77.3936987 117,77 C126.872595,77.3936987 136.460262,81.3323352 144,86 L144,73 C136.128273,68.988413 126.851595,66 117,66 C104.26138,66 97.6186105,69.4475546 92,72 C86.4659977,75.2347351 81.8961564,77.6072994 72,78 C62.1038436,77.6072994 57.5340023,75.2347351 52,72 C46.3813895,69.4475546 39.7396202,66 27,66 C17.1474046,66 7.87172668,68.988413 0,73 L0,86 C7.52473872,81.3203576 17.1004062,77.3936987 27,77 C36.9487171,77.3936987 41.5955557,79.8051903 47,83" id="mark-3"></path>
                <path d="M47,53 C53.0621923,57.7771549 59.7749592,63 73,63 C86.2250408,63 92.9378077,57.7771549 99,53 C104.296413,48.9389629 108.589264,45.5979678 118,46 C127.824596,45.5979678 137.483261,51.7912053 145,58 L145,44 C137.130273,38.298178 127.883594,34 118,34 C104.721399,34 97.9206347,39.290925 92,44 C86.5780285,48.1169236 82.3571751,51.4020322 73,51 C63.6428249,51.4020322 59.4219715,48.1169236 54,44 C48.0783653,39.290925 41.2786014,34 28,34 C18.1164057,34 8.86972675,38.298178 1,44 L1,58 C7.90276032,52.3734408 17.9184126,45.5979678 28,46 C37.4097358,45.5979678 41.7035867,48.9389629 47,53" id="mark-4"></path>
                <path d="M27,12 C35.9237526,11.5619935 40.1516058,15.9947326 46,22 C51.2002222,27.5729335 58.2879761,35 72,35 C85.7120239,35 92.7997778,27.5729335 98,22 C103.848394,15.9947326 108.076247,11.5619935 117,12 C126.375612,11.5619935 136.156272,20.0141815 144,29 L144,13 C134.818319,4.25344408 125.86563,0 117,0 C103.234415,0 96.0556647,7.52329822 90,14 C85.0250477,19.0822528 80.870192,23.4380065 72,23 C63.129808,23.4380065 58.9739523,19.0822528 54,14 C47.9433353,7.52329822 40.7645846,0 27,0 C18.1353703,0 9.18168119,4.25344408 0,13 L0,29 C7.84372765,20.0141815 17.624388,11.5619935 27,12" id="mark-5"></path>
            </g>
        </g>
    </g>
</svg>